<mxfile host="app.diagrams.net" modified="2024-05-12T03:16:07.230Z" agent="Mozilla/5.0 (Windows NT 10.0; Win64; x64) AppleWebKit/537.36 (KHTML, like Gecko) Chrome/124.0.0.0 Safari/537.36 Edg/124.0.0.0" etag="JAS0Fj_Zps6BFKstj4ec" version="24.4.0" type="github">
  <diagram name="PÃ¡gina-1" id="doYjJlYjpG8HW_bjuX9f">
    <mxGraphModel dx="949" dy="1107" grid="1" gridSize="10" guides="1" tooltips="1" connect="1" arrows="1" fold="1" page="1" pageScale="1" pageWidth="827" pageHeight="1169" math="0" shadow="0">
      <root>
        <mxCell id="0" />
        <mxCell id="1" parent="0" />
        <mxCell id="ESmcy98GkOk_jeE_j3nV-1" value="" style="edgeStyle=orthogonalEdgeStyle;rounded=0;orthogonalLoop=1;jettySize=auto;html=1;" edge="1" parent="1" source="ESmcy98GkOk_jeE_j3nV-2" target="ESmcy98GkOk_jeE_j3nV-4">
          <mxGeometry relative="1" as="geometry" />
        </mxCell>
        <mxCell id="ESmcy98GkOk_jeE_j3nV-2" value="INICIO 2" style="ellipse;whiteSpace=wrap;html=1;" vertex="1" parent="1">
          <mxGeometry x="140" y="40" width="120" height="80" as="geometry" />
        </mxCell>
        <mxCell id="ESmcy98GkOk_jeE_j3nV-3" value="" style="edgeStyle=orthogonalEdgeStyle;rounded=0;orthogonalLoop=1;jettySize=auto;html=1;" edge="1" parent="1" source="ESmcy98GkOk_jeE_j3nV-4" target="ESmcy98GkOk_jeE_j3nV-7">
          <mxGeometry relative="1" as="geometry" />
        </mxCell>
        <mxCell id="ESmcy98GkOk_jeE_j3nV-4" value="A,B,C&lt;br&gt;&lt;div&gt;p=(B*B)-4*A*C;&lt;br&gt;&lt;/div&gt;&lt;div&gt;x1=(-B+(sqrt((B*B)-4*A*C)))/(2*A);&lt;br&gt;&lt;/div&gt;&lt;div&gt;x2=(-B-(sqrt((B*B)-4*A*C)))/(2*A);&lt;br&gt;&lt;/div&gt;" style="whiteSpace=wrap;html=1;" vertex="1" parent="1">
          <mxGeometry x="100" y="150" width="200" height="60" as="geometry" />
        </mxCell>
        <mxCell id="ESmcy98GkOk_jeE_j3nV-5" value="" style="edgeStyle=orthogonalEdgeStyle;rounded=0;orthogonalLoop=1;jettySize=auto;html=1;" edge="1" parent="1" source="ESmcy98GkOk_jeE_j3nV-7">
          <mxGeometry relative="1" as="geometry">
            <mxPoint x="280" y="290" as="targetPoint" />
          </mxGeometry>
        </mxCell>
        <mxCell id="ESmcy98GkOk_jeE_j3nV-6" value="" style="edgeStyle=orthogonalEdgeStyle;rounded=0;orthogonalLoop=1;jettySize=auto;html=1;" edge="1" parent="1" source="ESmcy98GkOk_jeE_j3nV-7" target="ESmcy98GkOk_jeE_j3nV-12">
          <mxGeometry relative="1" as="geometry" />
        </mxCell>
        <mxCell id="ESmcy98GkOk_jeE_j3nV-7" value="A==0&amp;nbsp;&lt;div&gt;&amp;amp;&amp;amp;&lt;div&gt;B!=0&lt;/div&gt;&lt;/div&gt;" style="rhombus;whiteSpace=wrap;html=1;" vertex="1" parent="1">
          <mxGeometry x="160" y="250" width="80" height="80" as="geometry" />
        </mxCell>
        <mxCell id="ESmcy98GkOk_jeE_j3nV-8" style="edgeStyle=orthogonalEdgeStyle;rounded=0;orthogonalLoop=1;jettySize=auto;html=1;" edge="1" parent="1" target="ESmcy98GkOk_jeE_j3nV-30">
          <mxGeometry relative="1" as="geometry">
            <mxPoint x="400" y="290" as="sourcePoint" />
          </mxGeometry>
        </mxCell>
        <mxCell id="ESmcy98GkOk_jeE_j3nV-9" value="SI" style="text;html=1;align=center;verticalAlign=middle;whiteSpace=wrap;rounded=0;" vertex="1" parent="1">
          <mxGeometry x="230" y="260" width="60" height="30" as="geometry" />
        </mxCell>
        <mxCell id="ESmcy98GkOk_jeE_j3nV-10" value="" style="edgeStyle=orthogonalEdgeStyle;rounded=0;orthogonalLoop=1;jettySize=auto;html=1;" edge="1" parent="1" source="ESmcy98GkOk_jeE_j3nV-12">
          <mxGeometry relative="1" as="geometry">
            <mxPoint x="293.9999999999999" y="435" as="targetPoint" />
          </mxGeometry>
        </mxCell>
        <mxCell id="ESmcy98GkOk_jeE_j3nV-11" value="" style="edgeStyle=orthogonalEdgeStyle;rounded=0;orthogonalLoop=1;jettySize=auto;html=1;" edge="1" parent="1" source="ESmcy98GkOk_jeE_j3nV-12" target="ESmcy98GkOk_jeE_j3nV-18">
          <mxGeometry relative="1" as="geometry" />
        </mxCell>
        <mxCell id="ESmcy98GkOk_jeE_j3nV-12" value="A == 0 &amp;amp;&amp;amp; B == 0 || B==0 &amp;amp;&amp;amp; C==0" style="rhombus;whiteSpace=wrap;html=1;" vertex="1" parent="1">
          <mxGeometry x="140" y="370" width="120" height="130" as="geometry" />
        </mxCell>
        <mxCell id="ESmcy98GkOk_jeE_j3nV-13" value="no" style="text;html=1;align=center;verticalAlign=middle;whiteSpace=wrap;rounded=0;" vertex="1" parent="1">
          <mxGeometry x="200" y="330" width="60" height="30" as="geometry" />
        </mxCell>
        <mxCell id="ESmcy98GkOk_jeE_j3nV-14" style="edgeStyle=orthogonalEdgeStyle;rounded=0;orthogonalLoop=1;jettySize=auto;html=1;entryX=0;entryY=0.5;entryDx=0;entryDy=0;" edge="1" parent="1" target="ESmcy98GkOk_jeE_j3nV-30">
          <mxGeometry relative="1" as="geometry">
            <mxPoint x="414" y="435" as="sourcePoint" />
          </mxGeometry>
        </mxCell>
        <mxCell id="ESmcy98GkOk_jeE_j3nV-15" value="SI" style="text;html=1;align=center;verticalAlign=middle;whiteSpace=wrap;rounded=0;" vertex="1" parent="1">
          <mxGeometry x="247.5" y="400" width="60" height="30" as="geometry" />
        </mxCell>
        <mxCell id="ESmcy98GkOk_jeE_j3nV-16" value="" style="edgeStyle=orthogonalEdgeStyle;rounded=0;orthogonalLoop=1;jettySize=auto;html=1;" edge="1" parent="1" source="ESmcy98GkOk_jeE_j3nV-18" target="ESmcy98GkOk_jeE_j3nV-22">
          <mxGeometry relative="1" as="geometry" />
        </mxCell>
        <mxCell id="ESmcy98GkOk_jeE_j3nV-17" value="" style="edgeStyle=orthogonalEdgeStyle;rounded=0;orthogonalLoop=1;jettySize=auto;html=1;" edge="1" parent="1" source="ESmcy98GkOk_jeE_j3nV-18">
          <mxGeometry relative="1" as="geometry">
            <mxPoint x="200" y="640" as="targetPoint" />
          </mxGeometry>
        </mxCell>
        <mxCell id="ESmcy98GkOk_jeE_j3nV-18" value="p&amp;gt;=0" style="rhombus;whiteSpace=wrap;html=1;" vertex="1" parent="1">
          <mxGeometry x="150" y="530" width="100" height="80" as="geometry" />
        </mxCell>
        <mxCell id="ESmcy98GkOk_jeE_j3nV-19" value="SI" style="text;html=1;align=center;verticalAlign=middle;whiteSpace=wrap;rounded=0;" vertex="1" parent="1">
          <mxGeometry x="240" y="540" width="60" height="30" as="geometry" />
        </mxCell>
        <mxCell id="ESmcy98GkOk_jeE_j3nV-20" value="" style="edgeStyle=orthogonalEdgeStyle;rounded=0;orthogonalLoop=1;jettySize=auto;html=1;" edge="1" parent="1" source="ESmcy98GkOk_jeE_j3nV-22">
          <mxGeometry relative="1" as="geometry">
            <mxPoint x="400" y="570" as="targetPoint" />
          </mxGeometry>
        </mxCell>
        <mxCell id="ESmcy98GkOk_jeE_j3nV-21" value="" style="edgeStyle=orthogonalEdgeStyle;rounded=0;orthogonalLoop=1;jettySize=auto;html=1;" edge="1" parent="1" source="ESmcy98GkOk_jeE_j3nV-22">
          <mxGeometry relative="1" as="geometry">
            <mxPoint x="330" y="650" as="targetPoint" />
          </mxGeometry>
        </mxCell>
        <mxCell id="ESmcy98GkOk_jeE_j3nV-22" value="x1==x2" style="rhombus;whiteSpace=wrap;html=1;" vertex="1" parent="1">
          <mxGeometry x="290" y="530" width="80" height="80" as="geometry" />
        </mxCell>
        <mxCell id="ESmcy98GkOk_jeE_j3nV-23" style="edgeStyle=orthogonalEdgeStyle;rounded=0;orthogonalLoop=1;jettySize=auto;html=1;entryX=0.5;entryY=1;entryDx=0;entryDy=0;" edge="1" parent="1" target="ESmcy98GkOk_jeE_j3nV-30">
          <mxGeometry relative="1" as="geometry">
            <mxPoint x="610" y="460" as="targetPoint" />
            <mxPoint x="520" y="570" as="sourcePoint" />
          </mxGeometry>
        </mxCell>
        <mxCell id="ESmcy98GkOk_jeE_j3nV-24" value="SI" style="text;html=1;align=center;verticalAlign=middle;whiteSpace=wrap;rounded=0;" vertex="1" parent="1">
          <mxGeometry x="350" y="540" width="60" height="30" as="geometry" />
        </mxCell>
        <mxCell id="ESmcy98GkOk_jeE_j3nV-25" value="no" style="text;html=1;align=center;verticalAlign=middle;whiteSpace=wrap;rounded=0;" vertex="1" parent="1">
          <mxGeometry x="324" y="610" width="60" height="30" as="geometry" />
        </mxCell>
        <mxCell id="ESmcy98GkOk_jeE_j3nV-26" value="" style="edgeStyle=orthogonalEdgeStyle;rounded=0;orthogonalLoop=1;jettySize=auto;html=1;" edge="1" parent="1" target="ESmcy98GkOk_jeE_j3nV-29">
          <mxGeometry relative="1" as="geometry">
            <mxPoint x="200" y="700" as="sourcePoint" />
          </mxGeometry>
        </mxCell>
        <mxCell id="ESmcy98GkOk_jeE_j3nV-27" value="no" style="text;html=1;align=center;verticalAlign=middle;whiteSpace=wrap;rounded=0;" vertex="1" parent="1">
          <mxGeometry x="200" y="500" width="60" height="30" as="geometry" />
        </mxCell>
        <mxCell id="ESmcy98GkOk_jeE_j3nV-28" value="no" style="text;html=1;align=center;verticalAlign=middle;whiteSpace=wrap;rounded=0;" vertex="1" parent="1">
          <mxGeometry x="200" y="610" width="60" height="30" as="geometry" />
        </mxCell>
        <mxCell id="ESmcy98GkOk_jeE_j3nV-29" value="FIN" style="ellipse;whiteSpace=wrap;html=1;" vertex="1" parent="1">
          <mxGeometry x="160" y="750" width="80" height="50" as="geometry" />
        </mxCell>
        <mxCell id="ESmcy98GkOk_jeE_j3nV-30" value="FIN" style="ellipse;whiteSpace=wrap;html=1;" vertex="1" parent="1">
          <mxGeometry x="540" y="375" width="120" height="80" as="geometry" />
        </mxCell>
        <mxCell id="ESmcy98GkOk_jeE_j3nV-31" style="edgeStyle=orthogonalEdgeStyle;rounded=0;orthogonalLoop=1;jettySize=auto;html=1;entryX=0.621;entryY=0.992;entryDx=0;entryDy=0;entryPerimeter=0;" edge="1" parent="1" target="ESmcy98GkOk_jeE_j3nV-30">
          <mxGeometry relative="1" as="geometry">
            <mxPoint x="390" y="690" as="sourcePoint" />
          </mxGeometry>
        </mxCell>
        <mxCell id="ESmcy98GkOk_jeE_j3nV-32" value="mostrar&amp;nbsp;&lt;div&gt;-C/B&lt;/div&gt;" style="shape=parallelogram;perimeter=parallelogramPerimeter;whiteSpace=wrap;html=1;fixedSize=1;" vertex="1" parent="1">
          <mxGeometry x="274" y="260" width="136" height="60" as="geometry" />
        </mxCell>
        <mxCell id="ESmcy98GkOk_jeE_j3nV-33" value="mostrar&amp;nbsp;&lt;div&gt;&quot;&quot;&lt;/div&gt;" style="shape=parallelogram;perimeter=parallelogramPerimeter;whiteSpace=wrap;html=1;fixedSize=1;" vertex="1" parent="1">
          <mxGeometry x="290" y="395" width="130" height="65" as="geometry" />
        </mxCell>
        <mxCell id="ESmcy98GkOk_jeE_j3nV-34" value="&lt;div&gt;mostrar&lt;/div&gt;&quot;&quot;" style="shape=parallelogram;perimeter=parallelogramPerimeter;whiteSpace=wrap;html=1;fixedSize=1;" vertex="1" parent="1">
          <mxGeometry x="144" y="640" width="120" height="60" as="geometry" />
        </mxCell>
        <mxCell id="ESmcy98GkOk_jeE_j3nV-35" value="mostrar&lt;div&gt;x1&lt;/div&gt;" style="shape=parallelogram;perimeter=parallelogramPerimeter;whiteSpace=wrap;html=1;fixedSize=1;" vertex="1" parent="1">
          <mxGeometry x="390" y="530" width="140" height="75" as="geometry" />
        </mxCell>
        <mxCell id="ESmcy98GkOk_jeE_j3nV-36" value="mostrar&lt;div&gt;x1 &quot;&quot;&amp;nbsp;&lt;span style=&quot;background-color: initial;&quot;&gt;x2&lt;/span&gt;&lt;/div&gt;" style="shape=parallelogram;perimeter=parallelogramPerimeter;whiteSpace=wrap;html=1;fixedSize=1;" vertex="1" parent="1">
          <mxGeometry x="270" y="650" width="120" height="60" as="geometry" />
        </mxCell>
      </root>
    </mxGraphModel>
  </diagram>
</mxfile>
